<?xml version="1.0" encoding="utf-8"?>
<!-- Generator: Adobe Illustrator 23.0.3, SVG Export Plug-In . SVG Version: 6.00 Build 0)  -->
<svg version="1.1" id="圖層_1" xmlns="http://www.w3.org/2000/svg" xmlns:xlink="http://www.w3.org/1999/xlink" x="0px" y="0px"
	viewBox="0 0 512 512" style="enable-background:new 0 0 512 512;" xml:space="preserve">
<style type="text/css">
	.st0{fill:url(#SVGID_1_);}
	.st1{fill:none;stroke:#000000;stroke-width:8;stroke-linecap:round;stroke-linejoin:round;stroke-miterlimit:10;}
	.st2{fill:none;stroke:#000000;stroke-width:3;stroke-linecap:round;stroke-linejoin:round;stroke-miterlimit:10;}
</style>
		<polygon points="109.6,346 182.3,66.9 255,346 		"/>
		<path d="M182.3,84.7l66.9,256.8H115.4L182.3,84.7 M182.3,49l-78.5,301.5h157L182.3,49L182.3,49z"/>
		<path d="M432,235.5l-8.5,32.5l-8.5-32.5H432 M443.7,226.5h-40.2l20.1,77.2L443.7,226.5L443.7,226.5z"/>
		<polygon points="74.1,182 83.2,147 92.3,182 		"/>
		<path d="M83.2,164.9l3.3,12.6H80L83.2,164.9 M83.2,129.2l-14.9,57.3h29.8L83.2,129.2L83.2,129.2z"/>
		<polygon points="346.6,80 349.9,67.5 353.1,80 		"/>
		<polygon points="349.9,49.6 340.8,84.5 358.9,84.5 349.9,49.6 		"/>
		<path d="M248,38.6l120.9,335.7H127.1L248,38.6 M248,12.1L114.3,383.3h267.4L248,12.1L248,12.1z"/>
		<path d="M248,430l11,24.1l-11,24.1l-11-24.1L248,430 M248,408.3l-20.9,45.8l20.9,45.8l20.9-45.8L248,408.3L248,408.3z"/>
		<path d="M248,430l11,24.1l-11,24.1l-11-24.1L248,430 M248,408.3l-20.9,45.8l20.9,45.8l20.9-45.8L248,408.3L248,408.3z"/>
</svg>
