<?xml version="1.0" encoding="utf-8"?>
<!-- Generator: Adobe Illustrator 23.0.3, SVG Export Plug-In . SVG Version: 6.00 Build 0)  -->
<svg version="1.1" id="圖層_1" xmlns="http://www.w3.org/2000/svg" xmlns:xlink="http://www.w3.org/1999/xlink" x="0px" y="0px"
	 viewBox="0 0 665 134" style="enable-background:new 0 0 665 134;" xml:space="preserve">
<style type="text/css">
	.st0{fill:url(#SVGID_1_);}
	.st1{fill:none;stroke:#000000;stroke-width:8;stroke-linecap:round;stroke-linejoin:round;stroke-miterlimit:10;}
	.st2{fill:none;stroke:#000000;stroke-width:3;stroke-linecap:round;stroke-linejoin:round;stroke-miterlimit:10;}
</style>
<g>
	<polyline class="st1" points="507.9,44.2 425.6,44.2 425.6,91.7 507.9,91.7 	"/>
	<line class="st1" x1="291.4" y1="44.2" x2="373.6" y2="44.2"/>
	<line class="st1" x1="305.4" y1="68.3" x2="359.6" y2="68.3"/>
	<line class="st1" x1="291.4" y1="91.7" x2="373.6" y2="91.7"/>
	<line class="st1" x1="157.7" y1="44.2" x2="239.3" y2="44.2"/>
	<line class="st1" x1="198.8" y1="91.7" x2="198.8" y2="44.2"/>
	<polyline class="st1" points="23.4,44.2 93.6,44.2 93.6,67 23.4,67 	"/>
	<polyline class="st1" points="23.4,91.7 105.6,91.7 105.6,67 23.4,67 	"/>
	<polyline class="st1" points="23.4,91.7 23.4,67 23.4,44.2 	"/>
	<polyline class="st1" points="560,44.2 641.6,44.2 560,91.7 641.6,91.7 	"/>
	<polyline class="st2" points="516,22.3 533.5,22.3 533.5,30.2 516,30.2 516,36.8 533.5,36.8 	"/>
</g>
</svg>
