<?xml version="1.0" encoding="utf-8"?>
<!-- Generator: Adobe Illustrator 23.0.3, SVG Export Plug-In . SVG Version: 6.00 Build 0)  -->
<svg version="1.1" id="圖層_1" xmlns="http://www.w3.org/2000/svg" xmlns:xlink="http://www.w3.org/1999/xlink" x="0px" y="0px"
	 viewBox="0 0 1024 1024" style="enable-background:new 0 0 1024 1024;" xml:space="preserve">
<style type="text/css">
	.st0{stroke:#000000;stroke-width:9;stroke-miterlimit:10;}
	.st1{fill:none;stroke:#000000;stroke-width:9;stroke-miterlimit:10;}
	.st2{fill:none;stroke:#000000;stroke-width:8;stroke-linecap:round;stroke-linejoin:round;stroke-miterlimit:10;}
	.st3{fill:none;stroke:#000000;stroke-width:3;stroke-linecap:round;stroke-linejoin:round;stroke-miterlimit:10;}
</style>
<g>
	<polygon class="st0" points="468.3,267.9 389.8,569.4 546.8,569.4 	"/>
	<polygon class="st0" points="677.6,464.8 697.7,387.5 657.5,387.5 	"/>
	<polygon class="st0" points="341.2,465.2 326.3,522.6 356.2,522.6 	"/>
	<polygon class="st0" points="592.9,285.4 583.8,320.3 601.9,320.3 	"/>
	<polygon class="st1" points="504.5,228.1 370.8,599.3 638.2,599.3 	"/>
	<polygon class="st1" points="524.5,670.1 503.6,715.9 482.7,670.1 503.6,624.3 	"/>
</g>
<g>
	<polyline class="st2" points="687.4,854 605.1,854 605.1,806.4 687.4,806.4 	"/>
	<line class="st2" x1="470.9" y1="806.5" x2="553.1" y2="806.5"/>
	<line class="st2" x1="484.9" y1="830.5" x2="539.1" y2="830.5"/>
	<line class="st2" x1="470.9" y1="853.9" x2="553.1" y2="853.9"/>
	<line class="st2" x1="337.2" y1="806.5" x2="418.8" y2="806.5"/>
	<line class="st2" x1="378.3" y1="853.9" x2="378.3" y2="806.5"/>
	<rect x="202.9" y="806.5" class="st2" width="70.3" height="22.8"/>
	<rect x="202.9" y="829.3" class="st2" width="82.3" height="24.7"/>
	<polyline class="st2" points="739.5,806.5 821.1,806.5 739.5,853.9 821.1,853.9 	"/>
</g>
<polyline class="st3" points="695.5,784.5 713,784.5 713,792.4 695.5,792.4 695.5,799 713,799 "/>
</svg>
